<svg id="Layer_1" data-name="Layer 1" xmlns="http://www.w3.org/2000/svg" viewBox="0 0 271.13 105.11"><defs><style>.cls-1{fill:#fff;}</style></defs><title>car</title><path class="cls-1" d="M311.43,160.78c4.45-21.14,10.6-29,24.18-29.51,5.32-.19,12.59.57,15.7,3.93,6.43,7,10.67,16,15.95,24.33,17.52-8.34,20.31-15.66,12.76-36.24-.69-1.9.06-4.34-.64-6.24-2.47-6.64-4.67-13.5-8.14-19.61-2.89-5.11-7.16-9.55-11.31-13.79-2.27-2.33-5.38-4.7-8.44-5.26-56.06-10.25-110.86-9.11-162.73,18.38-4.86,2.58-10.6,3.47-15.92,5.18-15.34,4.94-31.08,9-45.87,15.22-9.1,3.84-14.37,19.28-11.94,28.5,2.06,7.83,7.1,12.61,16.53,13.42,1.74-16.21,8.87-28.33,26.7-28.07,18.58.26,24.2,13.87,26,29.76Z" transform="translate(-114.43 -72.44)"/><path class="cls-1" d="M158.06,135.13a21.26,21.26,0,0,0-21.56,21.31c.05,10.86,10.17,21,21.11,21.12s21.17-9.68,21.53-20.66A21.18,21.18,0,0,0,158.06,135.13Z" transform="translate(-114.43 -72.44)"/><path class="cls-1" d="M337.59,135.17a21,21,0,0,0-20.79,22c.39,11,10.79,20.71,21.71,20.35,11.13-.37,21-10.39,20.88-21.29A21.16,21.16,0,0,0,337.59,135.17Z" transform="translate(-114.43 -72.44)"/><path d="M313,160.78H185.82c-1.76-15.89-7.38-29.5-26-29.76-17.82-.26-24.95,11.86-26.69,28.07-9.43-.81-14.47-5.59-16.54-13.42-2.42-9.22,2.85-24.66,11.94-28.5,14.8-6.25,30.54-10.28,45.88-15.22,5.32-1.71,11.06-2.6,15.91-5.18C242.23,69.28,297,68.14,353.09,78.39c3.06.56,6.17,2.93,8.44,5.26,4.15,4.24,8.42,8.68,11.31,13.79,3.47,6.11,5.67,13,8.14,19.61.7,1.9-.05,4.34.64,6.24,7.55,20.58,4.76,27.9-12.76,36.24-5.28-8.38-9.52-17.37-16-24.33-3.1-3.36-10.38-4.12-15.69-3.93C323.63,131.75,317.48,139.64,313,160.78Zm-23.44-57.42V80.75a194.88,194.88,0,0,0-70.24,10.16c-11.55,3.82-12.74,6.92-7.74,19.14,20.21-1.51,40.59-3,60.95-4.6C278.11,105,283.62,104.1,289.59,103.36Zm10.54-.4c11.79-.84,22.41-.95,32.77-2.69,3.57-.61,6.46-5.27,9.67-8.08-2.88-1.91-5.52-4.85-8.66-5.53-10.87-2.37-21.92-4-33.78-6Z" transform="translate(-114.43 -72.44)"/><path d="M159.66,135.13a21.18,21.18,0,0,1,21.08,21.77c-.36,11-10.59,20.79-21.53,20.66s-21.06-10.26-21.11-21.12A21.26,21.26,0,0,1,159.66,135.13Z" transform="translate(-114.43 -72.44)"/><path d="M339.19,135.17a21.16,21.16,0,0,1,21.8,21c.08,10.9-9.75,20.92-20.88,21.29-10.92.36-21.32-9.38-21.71-20.35A21,21,0,0,1,339.19,135.17Z" transform="translate(-114.43 -72.44)"/><path class="cls-1" d="M289.59,103.36c-6,.74-11.48,1.65-17,2.09-20.36,1.62-40.74,3.09-60.95,4.6-5-12.22-3.81-15.32,7.74-19.14a194.88,194.88,0,0,1,70.24-10.16Z" transform="translate(-114.43 -72.44)"/><path class="cls-1" d="M300.13,103V80.67c11.86,2,22.91,3.62,33.78,6,3.14.68,5.78,3.62,8.66,5.53-3.21,2.81-6.1,7.47-9.67,8.08C322.54,102,311.92,102.12,300.13,103Z" transform="translate(-114.43 -72.44)"/></svg>